<svg xmlns="http://www.w3.org/2000/svg" viewBox="0 0 170.53 215.36"><defs><style>.cls-1{fill:#f47d48;}.cls-1,.cls-2{stroke:#231f20;stroke-miterlimit:10;stroke-width:2px;}.cls-2{fill:#74787a;}</style></defs><g id="Layer_2" data-name="Layer 2"><g id="Layer_5" data-name="Layer 5"><path class="cls-1" d="M49.58,195.12v19.24H72.67V195.12ZM140.11,39q-6.26,8.24-12.77,16.54c12.74,4.75,19.15,14.24,19.15,30.76,0,25.83-15.14,37.33-46.88,37.33H72.67v-72H84.26l13-18.73H49.58v135c6.82.07,15.51.12,23.09.14V142.36h29.85c16.31,0,30.53-3,41.62-9.22a52.1,52.1,0,0,0,5.74-3.7c12.42-9.22,19.65-23.49,19.65-43.14C169.53,61.12,158.52,46.4,140.11,39Z"/></g><g id="Layer_3" data-name="Layer 3"><path class="cls-2" d="M151.48,138.06l-.67-.16c-.11.26-.23.53-.35.79-4.91,11.31-10.84,21.74-16.52,27.41-7.75,8.58-16,10-52.27,10h-1l-8,0c-12.18-.06-23.38-.25-31.07-.55-2-.08-3.77-.16-5.26-.26l5.26-7.69V126.25Q21.38,154.8,1.19,182.7l2.49,4.42H147.49c2.76-11.89,9.4-37.89,11.34-47.29ZM28,28.66c5.81-8.57,10-10.23,34.57-10.23h54.48l-4.47,6.43L102.47,39.43l-1.16,1.67c-2,2.95-4.09,5.89-6.12,8.79q-3.39,4.86-6.76,9.7h0q-3.87,5.56-7.75,11.09v40.11Q98.4,85.2,116.18,59.92q10.74-15.27,21.54-30.5,6.24-8.8,12.53-17.63L148,7.36H36.32C28,7.36,24.7,7.64,21.66,1H14.47c-.56,12.17-3.87,36.23-5.26,50.61l8.3.28C21.1,41.38,25.25,32.25,28,28.66Z"/></g></g></svg>